<svg version="1.1" id="Layer_1" xmlns="http://www.w3.org/2000/svg" xmlns:xlink="http://www.w3.org/1999/xlink" x="0px" y="0px"
	 width="100%" viewBox="0 0 512 512" enable-background="new 0 0 512 512" xml:space="preserve">
<path fill="#00769D" opacity="1.000000" stroke="none" 
	d="
M513.000000,235.000000 
	C513.000000,249.354233 513.000000,263.708466 512.611755,278.716400 
	C511.128906,288.628967 510.921997,298.103302 508.738647,307.097900 
	C505.158478,321.846680 500.819305,336.466156 495.837952,350.805908 
	C489.743225,368.350800 480.588776,384.532593 470.363464,399.962860 
	C458.769165,417.458954 444.824188,433.125732 429.194611,447.106140 
	C419.714020,455.586365 409.772003,463.726044 399.210938,470.781860 
	C383.428223,481.326263 366.603973,490.147614 348.694244,496.730682 
	C330.060638,503.579773 311.076843,508.932678 291.261322,511.037415 
	C287.151093,511.473969 283.085938,512.334717 279.000000,513.000000 
	C264.645782,513.000000 250.291550,513.000000 235.283600,512.611755 
	C230.713516,511.817505 226.733475,511.726135 222.892227,510.948883 
	C209.078903,508.153656 195.128433,505.792633 181.567856,502.044403 
	C156.031464,494.986053 132.675674,483.075012 110.910591,467.997955 
	C92.664139,455.358368 76.614136,440.352264 62.056683,423.630829 
	C45.464870,404.572662 32.200958,383.457306 22.071604,360.353943 
	C13.444795,340.677643 7.252042,320.271484 3.968960,299.003174 
	C3.141648,293.643738 1.998181,288.333069 1.000000,283.000000 
	C1.000000,265.979095 1.000000,248.958206 1.378969,231.297974 
	C2.921787,222.588562 3.380676,214.336899 5.402683,206.487915 
	C9.110245,192.096008 13.361702,177.815018 18.080477,163.720154 
	C24.040716,145.917099 33.339211,129.641006 43.628742,114.072060 
	C54.918377,96.989891 68.418053,81.579102 83.721123,67.965172 
	C93.600388,59.176365 103.830238,50.603584 114.781044,43.239799 
	C130.531418,32.648586 147.379929,23.853220 165.296021,17.273090 
	C183.934494,10.427654 202.918915,5.069988 222.736786,2.962665 
	C226.847610,2.525544 230.913437,1.665258 235.000000,0.999999 
	C249.354233,1.000000 263.708466,1.000000 278.716400,1.388233 
	C288.628998,2.871100 298.103394,3.077981 307.097992,5.261344 
	C321.846802,8.841495 336.466278,13.180659 350.806030,18.162054 
	C368.350861,24.256863 384.532715,33.411217 399.962952,43.636555 
	C417.459045,55.230907 433.125824,69.175858 447.106171,84.805473 
	C455.586395,94.286079 463.725983,104.228134 470.781860,114.789177 
	C481.326294,130.571838 490.147552,147.396118 496.730591,165.305832 
	C503.579712,183.939377 508.932648,202.923203 511.037354,222.738708 
	C511.473907,226.848923 512.334717,230.914078 513.000000,235.000000 
M21.925451,287.746735 
	C22.277657,290.336914 22.634378,292.926483 22.981358,295.517365 
	C26.047264,318.410522 33.369205,340.075134 43.487720,360.638824 
	C51.816532,377.565338 62.117138,393.347931 74.242455,408.035522 
	C87.555901,424.162292 102.748314,437.984711 119.570786,450.203735 
	C136.353683,462.394104 154.594452,471.922028 173.889938,479.353577 
	C195.261795,487.584808 217.522873,492.486969 240.341721,493.803345 
	C253.373642,494.555115 266.573334,493.953308 279.597748,492.817200 
	C291.233398,491.802216 302.842499,489.719818 314.266327,487.211304 
	C333.191498,483.055511 350.910858,475.556152 368.058197,466.538177 
	C387.719543,456.198151 405.437256,443.218201 421.420532,427.917847 
	C428.194092,421.433624 434.163635,414.101196 440.405579,407.071686 
	C452.936707,392.959503 462.445953,376.795746 470.817932,360.061035 
	C479.016235,343.673401 485.174866,326.359406 488.755341,308.345703 
	C491.104980,296.524475 493.126251,284.516998 493.771881,272.511047 
	C494.455139,259.804535 493.926758,246.949585 492.825653,234.255051 
	C491.829529,222.770676 489.968750,211.272629 487.389252,200.033066 
	C482.319702,177.943848 473.453674,157.263901 461.944519,137.751251 
	C449.123413,116.014267 433.605347,96.557533 414.523682,79.829941 
	C396.862610,64.347679 377.510132,51.787483 356.368195,41.655109 
	C330.367554,29.194168 302.907776,22.082735 274.360931,20.249878 
	C251.846451,18.804335 229.291199,19.939587 206.984772,24.867521 
	C180.556870,30.705975 155.848602,40.676895 132.963715,54.776459 
	C110.372009,68.695396 90.451424,85.872955 73.597832,106.664574 
	C61.721085,121.316460 51.531548,136.979187 43.249592,153.748566 
	C29.963165,180.651047 22.099001,209.357742 20.262016,239.285431 
	C19.291719,255.093277 20.973335,271.063873 21.925451,287.746735 
z"/>
<path fill="#FFFFFF" opacity="1.000000" stroke="none" 
	d="
M513.000000,234.531342 
	C512.334717,230.914078 511.473907,226.848923 511.037354,222.738708 
	C508.932648,202.923203 503.579712,183.939377 496.730591,165.305832 
	C490.147552,147.396118 481.326294,130.571838 470.781860,114.789177 
	C463.725983,104.228134 455.586395,94.286079 447.106171,84.805473 
	C433.125824,69.175858 417.459045,55.230907 399.962952,43.636555 
	C384.532715,33.411217 368.350861,24.256863 350.806030,18.162054 
	C336.466278,13.180659 321.846802,8.841495 307.097992,5.261344 
	C298.103394,3.077981 288.628998,2.871100 279.185059,1.388233 
	C356.927032,1.000000 434.854095,1.000000 513.000000,1.000000 
	C513.000000,78.687424 513.000000,156.375061 513.000000,234.531342 
z"/>
<path fill="#FFFFFF" opacity="1.000000" stroke="none" 
	d="
M279.468658,513.000000 
	C283.085938,512.334717 287.151093,511.473969 291.261322,511.037415 
	C311.076843,508.932678 330.060638,503.579773 348.694244,496.730682 
	C366.603973,490.147614 383.428223,481.326263 399.210938,470.781860 
	C409.772003,463.726044 419.714020,455.586365 429.194611,447.106140 
	C444.824188,433.125732 458.769165,417.458954 470.363464,399.962860 
	C480.588776,384.532593 489.743225,368.350800 495.837952,350.805908 
	C500.819305,336.466156 505.158478,321.846680 508.738647,307.097900 
	C510.921997,298.103302 511.128906,288.628967 512.611755,279.185059 
	C513.000000,356.927032 513.000000,434.854095 513.000000,513.000000 
	C435.312561,513.000000 357.624939,513.000000 279.468658,513.000000 
z"/>
<path fill="#FFFFFF" opacity="1.000000" stroke="none" 
	d="
M234.531342,0.999999 
	C230.913437,1.665258 226.847610,2.525544 222.736786,2.962665 
	C202.918915,5.069988 183.934494,10.427654 165.296021,17.273090 
	C147.379929,23.853220 130.531418,32.648586 114.781044,43.239799 
	C103.830238,50.603584 93.600388,59.176365 83.721123,67.965172 
	C68.418053,81.579102 54.918377,96.989891 43.628742,114.072060 
	C33.339211,129.641006 24.040716,145.917099 18.080477,163.720154 
	C13.361702,177.815018 9.110245,192.096008 5.402683,206.487915 
	C3.380676,214.336899 2.921787,222.588562 1.378969,230.829315 
	C1.000000,154.405655 1.000000,77.811317 1.000000,1.000000 
	C78.687424,1.000000 156.375061,1.000000 234.531342,0.999999 
z"/>
<path fill="#FFFFFF" opacity="1.000000" stroke="none" 
	d="
M1.000000,283.468658 
	C1.998181,288.333069 3.141648,293.643738 3.968960,299.003174 
	C7.252042,320.271484 13.444795,340.677643 22.071604,360.353943 
	C32.200958,383.457306 45.464870,404.572662 62.056683,423.630829 
	C76.614136,440.352264 92.664139,455.358368 110.910591,467.997955 
	C132.675674,483.075012 156.031464,494.986053 181.567856,502.044403 
	C195.128433,505.792633 209.078903,508.153656 222.892227,510.948883 
	C226.733475,511.726135 230.713516,511.817505 234.814941,512.611755 
	C157.073593,513.000000 79.147186,513.000000 1.000000,513.000000 
	C1.000000,436.645905 1.000000,360.291626 1.000000,283.468658 
z"/>
<path fill="#FFFFFF" opacity="1.000000" stroke="none" 
	d="
M21.691549,287.353882 
	C20.973335,271.063873 19.291719,255.093277 20.262016,239.285431 
	C22.099001,209.357742 29.963165,180.651047 43.249592,153.748566 
	C51.531548,136.979187 61.721085,121.316460 73.597832,106.664574 
	C90.451424,85.872955 110.372009,68.695396 132.963715,54.776459 
	C155.848602,40.676895 180.556870,30.705975 206.984772,24.867521 
	C229.291199,19.939587 251.846451,18.804335 274.360931,20.249878 
	C302.907776,22.082735 330.367554,29.194168 356.368195,41.655109 
	C377.510132,51.787483 396.862610,64.347679 414.523682,79.829941 
	C433.605347,96.557533 449.123413,116.014267 461.944519,137.751251 
	C473.453674,157.263901 482.319702,177.943848 487.389252,200.033066 
	C489.968750,211.272629 491.829529,222.770676 492.825653,234.255051 
	C493.926758,246.949585 494.455139,259.804535 493.771881,272.511047 
	C493.126251,284.516998 491.104980,296.524475 488.755341,308.345703 
	C485.174866,326.359406 479.016235,343.673401 470.817932,360.061035 
	C462.445953,376.795746 452.936707,392.959503 440.405579,407.071686 
	C434.163635,414.101196 428.194092,421.433624 421.420532,427.917847 
	C405.437256,443.218201 387.719543,456.198151 368.058197,466.538177 
	C350.910858,475.556152 333.191498,483.055511 314.266327,487.211304 
	C302.842499,489.719818 291.233398,491.802216 279.597748,492.817200 
	C266.573334,493.953308 253.373642,494.555115 240.341721,493.803345 
	C217.522873,492.486969 195.261795,487.584808 173.889938,479.353577 
	C154.594452,471.922028 136.353683,462.394104 119.570786,450.203735 
	C102.748314,437.984711 87.555901,424.162292 74.242455,408.035522 
	C62.117138,393.347931 51.816532,377.565338 43.487720,360.638824 
	C33.369205,340.075134 26.047264,318.410522 22.981358,295.517365 
	C22.634378,292.926483 22.277657,290.336914 21.691549,287.353882 
M78.852066,136.704071 
	C77.136017,141.194946 80.994186,138.883606 81.960808,138.889832 
	C104.120537,139.032715 126.281410,139.000000 148.442062,139.000015 
	C150.206329,139.000015 151.970612,139.000000 153.651367,139.000000 
	C153.651367,146.023010 153.651367,152.418015 153.651367,159.252609 
	C144.267807,159.252609 135.229156,159.252609 125.802948,159.252609 
	C136.865311,190.583145 147.728973,221.388260 158.619064,252.184067 
	C171.940994,289.856750 185.277237,327.524384 198.631119,365.185760 
	C200.027084,369.122711 201.583878,373.002625 203.216507,377.305573 
	C204.136047,376.267761 204.615891,375.954254 204.763992,375.526001 
	C209.627747,361.462433 214.393036,347.364502 219.310776,333.319977 
	C228.346191,307.515961 237.496765,281.752228 246.474091,255.928131 
	C246.937653,254.594666 246.521027,252.753204 246.024338,251.317749 
	C235.708572,221.503677 225.306900,191.719360 214.976715,161.910263 
	C214.128830,159.463593 212.645370,158.895996 210.187424,158.940170 
	C201.581192,159.094772 192.970474,159.000092 184.300491,159.000092 
	C184.300491,152.077026 184.300491,145.683472 184.300491,139.327148 
	C227.987503,139.327148 271.373199,139.327148 314.635498,139.327148 
	C314.635498,146.056274 314.635498,152.452179 314.635498,159.289581 
	C304.242340,159.289581 294.211060,159.289581 283.908051,159.289581 
	C309.689392,232.172531 335.294495,304.557190 361.101013,377.511169 
	C362.037933,376.262848 362.691742,375.714233 362.934479,375.021515 
	C370.584442,353.194061 378.159332,331.340240 385.820099,309.516571 
	C394.115295,285.885559 401.183167,262.142029 400.180542,236.552429 
	C399.561554,220.754425 396.554230,205.679337 389.182770,191.931107 
	C382.611420,179.675095 375.035309,167.817276 366.683929,156.699127 
	C359.556427,147.210281 359.072296,138.113647 362.894745,127.491615 
	C367.836975,113.757729 384.018524,101.620346 398.448303,101.993500 
	C400.284180,102.040977 402.122406,102.000000 403.959534,102.000000 
	C404.077148,101.518784 404.194733,101.037567 404.312347,100.556351 
	C402.064850,98.721550 399.719727,96.993195 397.585419,95.035042 
	C381.329254,80.120804 362.639313,69.075035 342.574707,60.167698 
	C315.524078,48.159027 287.059113,42.764133 257.621582,42.064297 
	C252.538223,41.943451 247.427856,42.585060 242.342361,43.019592 
	C235.154099,43.633797 227.850739,43.763046 220.821014,45.198597 
	C204.164474,48.600063 187.817093,53.002861 172.080215,59.819836 
	C150.014679,69.378296 130.131226,82.125206 112.394325,98.206970 
	C99.920540,109.516785 88.820686,122.122902 78.852066,136.704071 
M210.778183,466.935455 
	C211.610306,466.959625 212.467194,466.862213 213.270905,467.025879 
	C230.483337,470.530579 247.802368,472.620911 265.402008,470.996124 
	C276.005310,470.017181 286.672455,469.442200 297.183807,467.847717 
	C305.182373,466.634460 312.980896,464.102020 320.956268,462.134827 
	C299.787720,402.295959 278.921875,343.312836 257.556396,282.917328 
	C234.780121,343.149994 212.527054,401.999084 190.094635,461.322479 
	C196.954025,463.111877 203.486237,464.815918 210.778183,466.935455 
M465.992889,306.387299 
	C477.882782,251.902634 471.067017,200.172928 443.392517,151.515564 
	C443.085938,153.500198 443.535767,155.383987 443.672943,157.290268 
	C444.169739,164.195251 444.959381,171.112854 444.871307,178.015900 
	C444.796570,183.874313 443.841705,189.746658 442.949982,195.562805 
	C441.941406,202.141129 441.252655,208.884811 439.220673,215.167099 
	C434.047028,231.162460 428.268097,246.964264 422.612762,262.801147 
	C409.992157,298.143158 397.319092,333.466522 384.627319,368.783051 
	C378.170959,386.748749 371.574310,404.664124 365.148499,422.640656 
	C362.322662,430.546082 359.764709,438.547241 356.804779,447.337555 
	C361.725708,444.442261 365.826141,442.123260 369.834808,439.655212 
	C388.712341,428.032959 405.236450,413.738007 419.739258,396.917480 
	C430.019867,384.993927 438.712982,372.119537 446.254730,358.369232 
	C455.120789,342.204346 461.195862,324.983124 465.992889,306.387299 
M105.500000,408.999969 
	C122.062538,426.340027 147.552750,443.129456 157.277206,446.465393 
	C124.962494,355.117432 92.746826,264.049500 60.394417,172.595001 
	C31.321556,231.281631 31.781157,335.936523 105.500000,408.999969 
z"/>
<path fill="#00769D" opacity="1.000000" stroke="none" 
	d="
M79.105316,136.405548 
	C88.820686,122.122902 99.920540,109.516785 112.394325,98.206970 
	C130.131226,82.125206 150.014679,69.378296 172.080215,59.819836 
	C187.817093,53.002861 204.164474,48.600063 220.821014,45.198597 
	C227.850739,43.763046 235.154099,43.633797 242.342361,43.019592 
	C247.427856,42.585060 252.538223,41.943451 257.621582,42.064297 
	C287.059113,42.764133 315.524078,48.159027 342.574707,60.167698 
	C362.639313,69.075035 381.329254,80.120804 397.585419,95.035042 
	C399.719727,96.993195 402.064850,98.721550 404.312347,100.556351 
	C404.194733,101.037567 404.077148,101.518784 403.959534,102.000000 
	C402.122406,102.000000 400.284180,102.040977 398.448303,101.993500 
	C384.018524,101.620346 367.836975,113.757729 362.894745,127.491615 
	C359.072296,138.113647 359.556427,147.210281 366.683929,156.699127 
	C375.035309,167.817276 382.611420,179.675095 389.182770,191.931107 
	C396.554230,205.679337 399.561554,220.754425 400.180542,236.552429 
	C401.183167,262.142029 394.115295,285.885559 385.820099,309.516571 
	C378.159332,331.340240 370.584442,353.194061 362.934479,375.021515 
	C362.691742,375.714233 362.037933,376.262848 361.101013,377.511169 
	C335.294495,304.557190 309.689392,232.172531 283.908051,159.289581 
	C294.211060,159.289581 304.242340,159.289581 314.635498,159.289581 
	C314.635498,152.452179 314.635498,146.056274 314.635498,139.327148 
	C271.373199,139.327148 227.987503,139.327148 184.300491,139.327148 
	C184.300491,145.683472 184.300491,152.077026 184.300491,159.000092 
	C192.970474,159.000092 201.581192,159.094772 210.187424,158.940170 
	C212.645370,158.895996 214.128830,159.463593 214.976715,161.910263 
	C225.306900,191.719360 235.708572,221.503677 246.024338,251.317749 
	C246.521027,252.753204 246.937653,254.594666 246.474091,255.928131 
	C237.496765,281.752228 228.346191,307.515961 219.310776,333.319977 
	C214.393036,347.364502 209.627747,361.462433 204.763992,375.526001 
	C204.615891,375.954254 204.136047,376.267761 203.216507,377.305573 
	C201.583878,373.002625 200.027084,369.122711 198.631119,365.185760 
	C185.277237,327.524384 171.940994,289.856750 158.619064,252.184067 
	C147.728973,221.388260 136.865311,190.583145 125.802948,159.252609 
	C135.229156,159.252609 144.267807,159.252609 153.651367,159.252609 
	C153.651367,152.418015 153.651367,146.023010 153.651367,139.000000 
	C151.970612,139.000000 150.206329,139.000015 148.442062,139.000015 
	C126.281410,139.000000 104.120537,139.032715 81.960808,138.889832 
	C80.994186,138.883606 77.136017,141.194946 79.105316,136.405548 
z"/>
<path fill="#00769D" opacity="1.000000" stroke="none" 
	d="
M210.398315,466.727722 
	C203.486237,464.815918 196.954025,463.111877 190.094635,461.322479 
	C212.527054,401.999084 234.780121,343.149994 257.556396,282.917328 
	C278.921875,343.312836 299.787720,402.295959 320.956268,462.134827 
	C312.980896,464.102020 305.182373,466.634460 297.183807,467.847717 
	C286.672455,469.442200 276.005310,470.017181 265.402008,470.996124 
	C247.802368,472.620911 230.483337,470.530579 213.270905,467.025879 
	C212.467194,466.862213 211.610306,466.959625 210.398315,466.727722 
z"/>
<path fill="#00769D" opacity="1.000000" stroke="none" 
	d="
M465.964172,306.813202 
	C461.195862,324.983124 455.120789,342.204346 446.254730,358.369232 
	C438.712982,372.119537 430.019867,384.993927 419.739258,396.917480 
	C405.236450,413.738007 388.712341,428.032959 369.834808,439.655212 
	C365.826141,442.123260 361.725708,444.442261 356.804779,447.337555 
	C359.764709,438.547241 362.322662,430.546082 365.148499,422.640656 
	C371.574310,404.664124 378.170959,386.748749 384.627319,368.783051 
	C397.319092,333.466522 409.992157,298.143158 422.612762,262.801147 
	C428.268097,246.964264 434.047028,231.162460 439.220673,215.167099 
	C441.252655,208.884811 441.941406,202.141129 442.949982,195.562805 
	C443.841705,189.746658 444.796570,183.874313 444.871307,178.015900 
	C444.959381,171.112854 444.169739,164.195251 443.672943,157.290268 
	C443.535767,155.383987 443.085938,153.500198 443.392517,151.515564 
	C471.067017,200.172928 477.882782,251.902634 465.964172,306.813202 
z"/>
<path fill="#00769D" opacity="1.000000" stroke="none" 
	d="
M105.250000,408.749969 
	C31.781157,335.936523 31.321556,231.281631 60.394417,172.595001 
	C92.746826,264.049500 124.962494,355.117432 157.277206,446.465393 
	C147.552750,443.129456 122.062538,426.340027 105.250000,408.749969 
z"/>
</svg>